{"title":"Short Circut DVD DNT NORARS","uid":5227063,"size":735082992,"categoryP":"video","categoryS":"movies","magnet":"?xt=urn:btih:fe4b3619644fed3c981bcf25b05e64b1d3d0aa91&amp;dn=Short+Circut+DVD+DNT+NORARS&amp;tr=udp%3A%2F%2Ftracker.openbittorrent.com%3A80&amp;tr=udp%3A%2F%2Fopen.demonii.com%3A1337&amp;tr=udp%3A%2F%2Ftracker.coppersurfer.tk%3A6969&amp;tr=udp%3A%2F%2Fexodus.desync.com%3A6969","seeders":1,"leechers":0,"uploader":"IwannaFan2","files":1,"time":1261166791,"description":"Video\nID                               : 0\nFormat                           : MPEG-4 Visual\nFormat profile                   : AdvancedSimple@L5\nFormat settings, BVOP            : Yes\nFormat settings, QPel            : No\nFormat settings, GMC             : No warppoints\nFormat settings, Matrix          : Default (H.263)\nMuxing mode                      : Packed bitstream\nCodec ID                         : XVID\nCodec ID/Hint                    : XviD\nDuration                         : 1h 38mn\nBit rate                         : 540 Kbps\nWidth                            : 624 pixels\nHeight                           : 268 pixels\nDisplay aspect ratio             : 2.35:1\nFrame rate                       : 23.976 fps\nResolution                       : 24 bits\nColorimetry                      : 4:2:0\nScan type                        : Interlaced\nScan order                       : Bottom Field First\nBits/(Pixel*Frame)               : 0.135\nStream size                      : 381 MiB (54%)\nWriting library                  : XviD 1.2.1 (UTC 2008-12-04)\n\nAudio\nID                               : 1\nFormat                           : AC-3\nFormat/Info                      : Audio Coding 3\nCodec ID                         : 2000\nDuration                         : 1h 38mn\nBit rate mode                    : Constant\nBit rate                         : 448 Kbps\nChannel(s)                       : 6 channels\nChannel positions                : Front: L C R, Surround: L R, LFE\nSampling rate                    : 48.0 KHz\nStream size                      : 316 MiB (45%)\nAlignment                        : Aligned on interleaves\nInterleave, duration             : 64 ms (1.53 video frames)\nInterleave, preload duration     : 192 ms\nTitle                            : SHORT_CIRCUIT.Title1","torrent":{"xt":"urn:btih:fe4b3619644fed3c981bcf25b05e64b1d3d0aa91","amp;dn":"Short+Circut+DVD+DNT+NORARS","amp;tr":["udp%3A%2F%2Ftracker.openbittorrent.com%3A80","udp%3A%2F%2Fopen.demonii.com%3A1337","udp%3A%2F%2Ftracker.coppersurfer.tk%3A6969","udp%3A%2F%2Fexodus.desync.com%3A6969"],"infoHash":"fe4b3619644fed3c981bcf25b05e64b1d3d0aa91","infoHashBuffer":{"type":"Buffer","data":[254,75,54,25,100,79,237,60,152,27,207,37,176,94,100,177,211,208,170,145]},"announce":[],"urlList":[]}}